<svg width="1667" height="2501" viewBox="0 0 1667 2501" fill="none" xmlns="http://www.w3.org/2000/svg">
<g clip-path="url(#clip0_1_2)">
<path d="M416.833 2500.5C646.833 2500.5 833.5 2313.83 833.5 2083.83V1667.17H416.833C186.833 1667.17 0.166698 1853.83 0.166698 2083.83C0.166698 2313.83 186.833 2500.5 416.833 2500.5Z" fill="#0ACF83"/>
<path d="M0.166698 1250.5C0.166698 1020.5 186.833 833.833 416.833 833.833H833.5V1667.17H416.833C186.833 1667.17 0.166698 1480.5 0.166698 1250.5Z" fill="#A259FF"/>
<path d="M0.166698 417.167C0.166698 187.167 186.833 0.500048 416.833 0.500048H833.5V833.833H416.833C186.833 833.833 0.166698 647.167 0.166698 417.167Z" fill="#F24E1E"/>
<path d="M833.5 0.500048H1250.17C1480.17 0.500048 1666.83 187.167 1666.83 417.167C1666.83 647.167 1480.17 833.833 1250.17 833.833H833.5V0.500048Z" fill="#FF7262"/>
<path d="M1666.83 1250.5C1666.83 1480.5 1480.17 1667.17 1250.17 1667.17C1020.17 1667.17 833.5 1480.5 833.5 1250.5C833.5 1020.5 1020.17 833.833 1250.17 833.833C1480.17 833.833 1666.83 1020.5 1666.83 1250.5Z" fill="#1ABCFE"/>
</g>
<defs>
<clipPath id="clip0_1_2">
<rect width="1667" height="2500" fill="white" transform="translate(0 0.5)"/>
</clipPath>
</defs>
</svg>
