<svg width="684" height="380" viewBox="0 0 684 380" fill="none" xmlns="http://www.w3.org/2000/svg">
<path d="M20 34.9451V317.923C20 322.489 21.5556 326.959 24.5141 330.438C56.9368 368.562 79.8825 370.995 123.092 330.815C127.034 327.15 129.207 321.945 129.207 316.562V65.2128C129.207 60.653 130.76 56.1957 133.695 52.7064C169.518 10.1216 192.458 8.12076 231.983 52.6047C235.13 56.1473 236.808 60.7684 236.808 65.5074V315.921C236.808 321.679 239.278 327.215 243.74 330.854C282.388 362.376 305.574 359.405 340.626 330.867C345.124 327.206 347.621 321.648 347.621 315.849V66.4921C347.621 61.1637 349.743 56.0023 353.637 52.3657C391.361 17.1405 413.731 19.209 447.871 52.4079C451.599 56.0331 453.616 61.0754 453.616 66.2754V315.057C453.616 321.309 456.51 327.272 461.662 330.812C493.596 352.755 513.371 350.797 541.975 330.838C547.091 327.268 549.975 321.319 549.975 315.081V65.6882C549.975 60.8399 551.73 56.1116 555.025 52.5553C590.705 14.0495 614.938 13.3888 657.732 52.3126C661.769 55.9846 664 61.2535 664 66.7105V331.978" stroke="#D0BFFF" stroke-width="40" stroke-linecap="round"/>
</svg>
