<svg width="100" height="100" viewBox="0 0 100 100" fill="none" xmlns="http://www.w3.org/2000/svg">
<g id="MongoDB logo" clip-path="url(#clip0_1_2)">
<path id="Vector" d="M49.6875 0.271875L52.3562 5.28437C52.9562 6.20937 53.6062 7.02813 54.3719 7.79063C56.6062 10.025 58.7281 12.3656 60.6344 14.8719C65.1562 20.8094 68.2063 27.4031 70.3844 34.5344C71.6906 38.8906 72.4 43.3594 72.4531 47.8781C72.6719 61.3875 68.0406 72.9875 58.7031 82.6281C57.1781 84.1531 55.5469 85.5656 53.7969 86.8219C52.8719 86.8219 52.4344 86.1125 52.0531 85.4594C51.3437 84.2625 50.9094 82.8969 50.6906 81.5375C50.3625 79.9031 50.1469 78.2688 50.2531 76.5813V75.8187C50.1781 75.6562 49.3625 0.65625 49.6875 0.271875Z" fill="#599636"/>
<path id="Vector_2" d="M49.6875 0.10625C49.5781 -0.1125 49.4688 0.053125 49.3594 0.159375C49.4125 1.25312 49.0313 2.22813 48.4344 3.15938C47.7781 4.08438 46.9094 4.79375 46.0375 5.55625C41.1938 9.75 37.3813 14.8156 34.3281 20.4812C30.2656 28.1062 28.1719 36.2781 27.5781 44.8813C27.3063 47.9844 28.5594 58.9344 29.5375 62.0938C32.2063 70.4813 37 77.5094 43.2094 83.6094C44.7344 85.0781 46.3656 86.4406 48.0531 87.75C48.5438 87.75 48.5969 87.3125 48.7094 86.9875C48.9245 86.2921 49.0885 85.5818 49.2 84.8625L50.2938 76.6937L49.6875 0.10625Z" fill="#6CAC48"/>
<path id="Vector_3" d="M52.3562 90.1406C52.4656 88.8906 53.0656 87.8531 53.7188 86.8188C53.0625 86.5469 52.575 86.0063 52.1937 85.4031C51.8656 84.8594 51.5937 84.2063 51.3812 83.6063C50.6187 81.3188 50.4562 78.9188 50.2375 76.5813V75.1656C49.9656 75.3844 49.9094 77.2344 49.9094 77.5094C49.7504 79.9799 49.4225 82.4367 48.9281 84.8625C48.7656 85.8438 48.6562 86.8219 48.0531 87.6938C48.0531 87.8031 48.0531 87.9125 48.1062 88.075C49.0875 90.9625 49.3562 93.9031 49.5219 96.9V97.9938C49.5219 99.3 49.4687 99.025 50.5531 99.4625C50.9906 99.625 51.4781 99.6812 51.9156 100.006C52.2438 100.006 52.2969 99.7344 52.2969 99.5156L52.1344 97.7188V92.7063C52.0813 91.8313 52.2437 90.9625 52.3531 90.1438L52.3562 90.1406Z" fill="#C2BFBF"/>
</g>
<defs>
<clipPath id="clip0_1_2">
<rect width="100" height="100" fill="white"/>
</clipPath>
</defs>
</svg>
