<svg width="69" height="69" viewBox="0 0 69 69" fill="none" xmlns="http://www.w3.org/2000/svg">
<path id="Vector" d="M51.2072 64.6901C50.9506 64.8259 50.9722 64.8691 51.218 64.744C51.2977 64.7117 51.3646 64.6664 51.4228 64.6125C51.4228 64.5672 51.4228 64.5672 51.2072 64.6901ZM51.7247 64.4098C51.6018 64.5111 51.6018 64.5111 51.7484 64.4443C51.826 64.399 51.895 64.3559 51.895 64.3429C51.895 64.2847 51.8605 64.2977 51.7247 64.4098ZM52.061 64.2071C51.9381 64.3084 51.9381 64.3084 52.0848 64.2416C52.1645 64.1963 52.2314 64.1489 52.2314 64.1381C52.2314 64.0842 52.1969 64.095 52.061 64.2071ZM52.4017 64.0066C52.2788 64.1079 52.2788 64.1079 52.4211 64.0389C52.5009 63.9958 52.5677 63.9505 52.5677 63.9376C52.5677 63.8837 52.5332 63.8945 52.4017 64.0066ZM52.861 63.7026C52.626 63.86 52.544 63.9613 52.7596 63.8492C52.9041 63.7608 53.1499 63.5667 53.1068 63.5667C53.0141 63.6012 52.9364 63.6594 52.8588 63.7026H52.861ZM32.2414 0.017557C32.084 0.0283379 31.6118 0.0714616 31.1978 0.10596C21.3915 0.994308 12.2169 6.27264 6.40171 14.4036C3.18684 18.8604 1.09965 24.0374 0.312646 29.4732C0.0344989 31.3706 0 31.9312 0 34.5035C0 37.0737 0.0344989 37.6257 0.312646 39.5231C2.19068 52.4839 11.4105 63.364 23.9078 67.3961C26.1567 68.1141 28.5134 68.61 31.1978 68.9141C32.2414 69.0262 36.7543 69.0262 37.7979 68.9141C42.438 68.3966 46.3558 67.2516 50.2326 65.2744C50.8277 64.9725 50.9398 64.8928 50.86 64.8259C48.9626 62.3226 47.0997 59.8171 45.2346 57.2901L39.7212 49.8448L32.8149 39.6137C30.5121 36.1897 28.2007 32.7743 25.8526 29.3848C25.8289 29.3848 25.7987 33.9322 25.7858 39.4779C25.7621 49.1915 25.7621 49.586 25.6392 49.8103C25.5163 50.0798 25.3136 50.304 25.0441 50.4291C24.8306 50.5304 24.6387 50.552 23.6188 50.552H22.4523L22.1483 50.3623C21.9586 50.2394 21.8012 50.069 21.6998 49.8685L21.5532 49.5645L21.564 36.0431L21.5877 22.5216L21.8012 22.2521C21.937 22.0861 22.1052 21.9502 22.2949 21.8489C22.5774 21.7131 22.6895 21.6915 23.856 21.6915C25.2252 21.6915 25.4516 21.7454 25.8117 22.14C28.6061 26.3057 31.3919 30.4823 34.1324 34.6717C38.6151 41.468 44.7343 50.7417 47.7422 55.2913L53.2124 63.5689L53.482 63.3899C56.1103 61.6369 58.5016 59.5498 60.565 57.1693C64.9119 52.1929 67.7322 46.0715 68.6874 39.5382C68.9655 37.6408 69 37.078 69 34.5079C69 31.9355 68.9655 31.3857 68.6874 29.4883C66.8093 16.5274 57.5895 5.64735 45.0923 1.61313C42.7549 0.873562 40.3508 0.369015 37.9165 0.110273C37.2631 0.0434312 32.8042 -0.0363476 32.2436 0.0218694L32.2414 0.017557ZM46.3579 20.8829C46.6835 21.0382 46.9293 21.3314 47.0414 21.6678C47.0997 21.8489 47.1104 25.5985 47.0997 34.0443L47.0759 46.1706L44.9435 42.8932L42.7981 39.6137V30.81C42.7981 25.1026 42.8218 21.9028 42.852 21.7454C42.9533 21.3853 43.1991 21.0835 43.5269 20.8937C43.7942 20.7579 43.8977 20.7471 44.965 20.7471C45.9633 20.7471 46.1315 20.7579 46.3558 20.8829H46.3579Z" fill="black"/>
</svg>
