<svg width="2508" height="1883" viewBox="0 0 2508 1883" fill="none" xmlns="http://www.w3.org/2000/svg">
<g clip-path="url(#clip0_1_2)" filter="url(#filter0_d_1_2)">
<path d="M2155.37 1077.15C2067.96 1077.64 1992.28 1098.63 1928.8 1129.89C1905.37 1083.5 1881.93 1042.97 1878.03 1012.7C1873.63 977.544 1868.26 956.055 1873.63 914.067C1879 872.07 1903.41 812.5 1903.41 807.617C1902.92 803.223 1898.04 781.738 1847.75 781.25C1797.46 780.762 1754 791.016 1749.12 804.199C1744.23 817.383 1734.47 847.656 1728.12 878.906C1719.33 924.805 1627.54 1087.4 1575.29 1172.85C1558.2 1139.65 1543.55 1110.35 1540.62 1086.91C1536.23 1051.76 1530.85 1030.27 1536.23 988.281C1541.6 946.284 1566.01 886.719 1566.01 881.836C1565.52 877.441 1560.64 855.957 1510.35 855.469C1460.05 854.98 1416.6 865.234 1411.72 878.418C1406.84 891.601 1401.47 922.852 1390.72 953.125C1380.46 983.398 1258.39 1254.88 1226.66 1325.68C1210.54 1361.82 1196.39 1390.62 1186.13 1410.16C1175.88 1429.69 1185.64 1411.62 1184.66 1413.57C1175.88 1430.18 1170.99 1439.45 1170.99 1439.45V1439.95C1164.16 1452.15 1156.83 1463.87 1153.41 1463.87C1150.97 1463.87 1146.08 1431.15 1154.39 1386.24C1172.45 1291.99 1216.4 1145.02 1215.91 1139.65C1215.91 1137.21 1224.21 1111.33 1187.59 1098.15C1151.94 1084.97 1139.25 1106.94 1136.32 1106.94C1133.39 1106.94 1130.95 1114.75 1130.95 1114.75C1130.95 1114.75 1170.5 949.228 1055.26 949.228C982.999 949.228 883.39 1027.84 834.073 1099.62C802.823 1116.71 736.417 1152.84 666.104 1191.42C639.249 1206.06 611.417 1221.69 585.05 1235.85L579.684 1229.98C440.035 1081.05 181.734 975.586 192.477 775.391C196.383 702.637 221.773 510.742 688.575 278.32C1070.9 87.8906 1377.05 140.137 1430.27 256.348C1505.95 422.363 1266.7 730.957 869.239 775.391C717.872 792.48 638.277 733.887 618.263 711.914C597.267 688.965 594.337 687.988 586.524 692.383C573.829 699.219 581.642 719.726 586.524 731.934C598.243 762.695 647.071 817.383 730.079 844.727C802.828 868.652 980.567 881.836 1195.41 798.828C1436.13 705.566 1624.12 446.777 1568.95 230.469C1512.79 10.2539 1147.56 -62.0117 802.345 60.5469C596.773 133.789 374.117 248.047 213.961 397.949C23.5313 575.684 -6.74219 730.957 5.95313 795.41C50.3916 1025.39 367.281 1175.29 494.234 1286.13C487.887 1289.55 482.027 1292.96 476.656 1295.9C413.18 1327.14 171.48 1453.61 110.934 1587.4C42.5742 1738.76 121.676 1847.66 174.41 1862.3C337.496 1907.71 504.488 1826.17 594.82 1691.89C684.659 1557.62 673.922 1383.3 632.418 1303.71L630.948 1300.78L680.753 1271.48C712.984 1252.44 744.723 1234.86 772.55 1219.72C756.93 1262.2 745.694 1312.5 739.84 1385.74C733.004 1471.68 768.16 1583 814.547 1626.95C835.055 1645.99 859.469 1646.48 874.605 1646.48C928.316 1646.48 952.73 1602.04 979.586 1548.82C1012.79 1483.88 1042.09 1408.69 1042.09 1408.69C1042.09 1408.69 1005.46 1612.3 1105.56 1612.3C1142.18 1612.3 1178.8 1564.94 1195.41 1540.52V1541.01C1195.41 1541.01 1196.38 1539.55 1198.34 1536.13C1200.38 1533.1 1202.34 1530.01 1204.2 1526.86V1525.88C1218.84 1500.49 1251.56 1442.38 1300.39 1346.19C1363.37 1222.17 1423.92 1066.89 1423.92 1066.89C1423.92 1066.89 1429.78 1104.98 1447.85 1167.48C1458.59 1204.59 1482.02 1245.12 1500.09 1284.67C1485.44 1305.18 1476.65 1316.9 1476.65 1316.9L1477.14 1317.39C1465.43 1333.01 1452.24 1349.62 1438.57 1366.22C1388.77 1425.79 1329.2 1493.66 1321.38 1513.19C1312.11 1536.14 1314.06 1553.23 1332.12 1566.9C1345.31 1576.67 1368.75 1578.62 1393.65 1576.67C1438.57 1573.74 1469.82 1562.51 1485.45 1555.67C1509.86 1546.88 1537.69 1533.7 1564.55 1514.17C1613.38 1478.04 1643.16 1426.77 1640.23 1358.41C1638.77 1320.81 1626.56 1283.7 1611.42 1248.54C1615.82 1242.2 1620.22 1235.84 1624.61 1229.01C1701.75 1116.22 1761.32 992.197 1761.32 992.197C1761.32 992.197 1767.18 1030.28 1785.25 1092.78C1794.52 1124.52 1813.08 1159.19 1829.68 1193.37C1757.42 1252.46 1712.01 1320.82 1696.38 1365.74C1667.57 1448.75 1690.04 1486.34 1732.52 1495.13C1751.55 1499.04 1778.9 1490.25 1799.41 1481.46C1824.8 1473.16 1855.56 1458.99 1883.88 1438C1932.71 1401.87 1979.59 1351.58 1977.14 1283.71C1975.68 1252.46 1967.38 1221.69 1956.15 1192.4C2017.67 1167.01 2097.26 1152.36 2198.34 1164.57C2415.62 1189.96 2458.59 1325.7 2450.29 1382.34C2441.99 1438.98 2396.58 1470.23 2381.44 1480C2366.3 1489.27 2361.42 1492.7 2362.89 1499.53C2364.84 1509.79 2371.68 1509.29 2384.86 1507.34C2402.93 1504.41 2499.12 1460.96 2503.02 1356.47C2508.88 1222.17 2381.44 1075.69 2155.37 1077.15ZM479.586 1642.09C407.809 1720.7 306.734 1750.49 263.766 1725.1C217.379 1698.24 235.44 1582.52 323.824 1499.02C377.535 1448.24 447.359 1401.37 493.258 1372.56C503.512 1366.21 519.137 1356.94 537.691 1345.7C540.621 1343.75 542.574 1342.77 542.574 1342.77C545.992 1340.82 549.898 1338.38 553.805 1335.94C586.52 1455.08 555.27 1559.57 479.586 1642.09ZM1004.49 1285.16C979.586 1346.19 926.852 1502.93 895.113 1494.14C867.765 1486.82 851.168 1368.16 889.737 1250.98C909.269 1191.89 950.772 1121.58 975.187 1094.23C1014.74 1050.29 1057.71 1035.64 1068.45 1053.71C1081.15 1077.15 1020.11 1247.07 1004.49 1285.16ZM1437.59 1492.19C1426.85 1497.56 1417.09 1501.46 1412.69 1498.54C1409.27 1496.59 1417.08 1489.26 1417.08 1489.26C1417.08 1489.26 1471.28 1431.16 1492.76 1404.3C1504.97 1388.68 1519.62 1370.62 1535.25 1350.1V1355.96C1535.25 1426.27 1467.87 1473.14 1437.59 1492.19ZM1771.57 1416.02C1763.76 1410.16 1764.74 1392.09 1791.1 1335.45C1801.36 1312.99 1824.8 1275.39 1865.32 1239.75C1870.21 1254.39 1873.14 1268.55 1872.65 1281.74C1872.16 1369.63 1809.66 1402.34 1771.57 1416.02Z" fill="#CF649A"/>
</g>
<defs>
<filter id="filter0_d_1_2" x="0" y="0" width="2508" height="1883" filterUnits="userSpaceOnUse" color-interpolation-filters="sRGB">
<feFlood flood-opacity="0" result="BackgroundImageFix"/>
<feColorMatrix in="SourceAlpha" type="matrix" values="0 0 0 0 0 0 0 0 0 0 0 0 0 0 0 0 0 0 127 0" result="hardAlpha"/>
<feOffset dy="4"/>
<feGaussianBlur stdDeviation="2"/>
<feComposite in2="hardAlpha" operator="out"/>
<feColorMatrix type="matrix" values="0 0 0 0 0 0 0 0 0 0 0 0 0 0 0 0 0 0 0.25 0"/>
<feBlend mode="normal" in2="BackgroundImageFix" result="effect1_dropShadow_1_2"/>
<feBlend mode="normal" in="SourceGraphic" in2="effect1_dropShadow_1_2" result="shape"/>
</filter>
<clipPath id="clip0_1_2">
<rect width="2500" height="1875" fill="white" transform="translate(4)"/>
</clipPath>
</defs>
</svg>
