<svg width="131" height="16" viewBox="0 0 131 16" fill="none" xmlns="http://www.w3.org/2000/svg">
<path id="Project Separator" fill-rule="evenodd" clip-rule="evenodd" d="M10.7629 0.104075C9.4439 0.388325 8.22882 0.936696 7.26512 1.68327C6.19257 2.5139 1.23498 8.34136 0.807015 9.27441C0.424144 10.1092 0.393717 11.8625 0.74761 12.6987C1.43403 14.3197 2.98906 15.1377 4.52724 14.6871C5.36145 14.4427 5.70285 14.1155 8.10186 11.2611C12.0266 6.59117 12.1756 6.58144 15.9234 10.7499C19.4212 14.6402 21.1237 15.5376 24.5697 15.3074C27.6198 15.1034 28.91 14.2927 32.3582 10.4132C35.6693 6.68784 35.9854 6.70288 39.6341 10.7602C43.1268 14.6444 44.8305 15.5387 48.2954 15.3074C51.3073 15.1061 52.685 14.2394 56.076 10.4136C59.4621 6.59361 59.6338 6.61175 63.7836 11.2325C66.5965 14.3646 68.4423 15.3684 71.388 15.3684C74.4725 15.3684 76.1941 14.3785 79.4864 10.7129C83.0829 6.70841 83.4001 6.69448 86.692 10.3999C90.1139 14.2516 91.4701 15.1061 94.4805 15.3074C97.9472 15.539 99.6527 14.6442 103.148 10.7596C106.8 6.70067 107.115 6.68541 110.418 10.4099C113.82 14.2462 115.153 15.0941 118.115 15.306C120.012 15.4419 121.393 15.091 123.097 14.0405C124.382 13.2482 129.45 7.44591 130.114 6.00653C131.26 3.52083 129.718 0.547593 127.281 0.547593C126.757 0.547593 126.08 0.710402 125.758 0.91369C125.439 1.11499 124.033 2.64065 122.633 4.30434C118.903 8.73688 118.659 8.75192 115.109 4.76688C111.801 1.05327 110.12 0.0693453 107.067 0.0576213C103.854 0.0452338 102.249 0.906169 99.2215 4.26762C96.2924 7.51958 96.3947 7.42291 95.6614 7.62509C94.5031 7.94407 93.9243 7.55055 91.3433 4.68836C87.9777 0.956383 86.304 0.00608042 83.1603 0.0419159C80.0196 0.0775301 78.5336 0.937801 75.1696 4.668C72.5737 7.54634 71.9947 7.94297 70.8484 7.6273C70.0756 7.41428 70.1555 7.48861 67.375 4.40234C64.2545 0.938686 62.6784 0.063815 59.5251 0.0454549C56.483 0.0275372 54.7164 1.04509 51.4095 4.72043C48.8648 7.54878 48.278 7.94562 47.1146 7.62509C46.3812 7.42291 46.4836 7.51958 43.5544 4.26762C40.5268 0.906169 38.9223 0.0452338 35.7088 0.0576213C32.6444 0.0693453 31.0108 1.03093 27.6109 4.8244C24.0035 8.84947 23.9414 8.8435 19.653 4.05858C17.8138 2.00645 16.6735 1.10326 15.2431 0.565954C13.9061 0.063594 11.9074 -0.142349 10.7629 0.104075Z" fill="#155E75"/>
</svg>
