<svg width="2500" height="2455" viewBox="0 0 2500 2455" fill="none" xmlns="http://www.w3.org/2000/svg">
<path d="M71.4472 877.596C71.4472 877.596 12.2668 834.937 83.2832 777.976L248.742 630.025C248.742 630.025 296.086 580.214 346.143 623.613L1873 1779.6V2333.93C1873 2333.93 1872.26 2420.97 1760.55 2411.35L71.4472 877.596Z" fill="#2489CA"/>
<path d="M464.997 1234.9L71.4472 1592.69C71.4472 1592.69 31.0072 1622.78 71.4472 1676.53L254.167 1842.73C254.167 1842.73 297.566 1889.33 361.678 1836.32L778.899 1519.95L464.997 1234.9Z" fill="#1070B3"/>
<path d="M1155.93 1237.86L1877.68 686.739L1873 135.375C1873 135.375 1842.17 15.0417 1739.35 77.6743L778.899 951.818L1155.93 1237.86Z" fill="#0877B9"/>
<path d="M1760.55 2412.09C1802.47 2455 1853.27 2440.94 1853.27 2440.94L2415.73 2163.78C2487.73 2114.71 2477.62 2053.81 2477.62 2053.81V398.728C2477.62 325.985 2403.15 300.834 2403.15 300.834L1915.66 65.8382C1809.13 4.94203e-05 1739.35 77.6743 1739.35 77.6743C1739.35 77.6743 1829.1 13.0691 1873 135.375V2323.82C1873 2338.86 1869.79 2353.65 1863.38 2366.97C1850.56 2392.86 1822.69 2417.03 1755.87 2406.92L1760.55 2412.09Z" fill="#3C99D4"/>
</svg>
